/* XPM */
static char *_b83992beec043f5bdbc9a2d015d87b78YsTKWJ9WF1QEcCa[] = {
/* columns rows colors chars-per-pixel */
"60 60 2 1 ",
"  c black",
". c #CACACA",
/* pixels */
"............................................................",
"............................................................",
"............................................................",
"............................................................",
"............................................................",
"............................................................",
"............................................................",
"............................................................",
"............................................................",
".............                                ...............",
".............                                ...............",
".............  ............................  ...............",
".............  ............................  ...............",
".............  ............................  ...............",
".............  ............................  ...............",
".............  ............................  ...............",
".............  ............................  ...............",
".............  ............................  ...............",
".............  ............................  ...............",
".............  ............................  ...............",
".............  ............................  ...............",
".............  ............................  ...............",
".............  ............................  ...............",
".............  ............................  ...............",
".............  ............................  ...............",
".............  ............................  ...............",
".............  ............................  ...............",
".............  ............................  ...............",
".............  ............................  ...............",
".............  ............................  ...............",
".............  ............................  ...............",
".............  ............................  ...............",
".............  ............................  ...............",
".............  ............................  ...............",
".............  .....................   ....  ...............",
".............  .....................   ....  ...............",
".............  .....................   ....  ...............",
".............  .....................   ....  ...............",
".............  ............................  ...............",
".............  ............................  ...............",
".............  ............................  ...............",
".............  ............................  ...............",
".............  ............................  ...............",
".............  ............................  ...............",
".............  ............................  ...............",
".............  ............................  ...............",
".............  ............................  ...............",
".............  ............................  ...............",
".............  ............................  ...............",
".............  ............................  ...............",
".............  ............................  ...............",
".............  ............................  ...............",
".............  ............................  ...............",
".............  ............................  ...............",
".............                                ...............",
".............                                ...............",
"............................................................",
"............................................................",
"............................................................",
"............................................................"
};
