/* XPM */
static char *eb8f6921194b45b3f902a317de09ae63aQ6noFRbkxgwBy2v[] = {
/* columns rows colors chars-per-pixel */
"60 60 2 1 ",
"  c black",
". c #CACACA",
/* pixels */
"............................................................",
"............................................................",
"............................................................",
"............................................................",
"............................................................",
"............................................................",
"............................................................",
"............................................................",
"............................................................",
"............................................................",
"............................................................",
"............................................................",
"............................................................",
"............................................................",
"............................................................",
"............................................................",
"............................................................",
"............................................................",
"............................................................",
"............................  ..............................",
"............................  ..............................",
"..........................  ..  ............................",
"..........................  ..  ............................",
"..........................  ..  ............................",
"........................          ..........................",
"........................          ..........................",
"......................  ..........  ........................",
"......................  ..........  ........................",
"......................  ..........  ........................",
"......................  ..........  ........................",
"......................              ........................",
"......................              ........................",
"..................... .............. .......................",
"..................... .............. .......................",
"..................... .............. .......................",
"..................... .............. .......................",
".....................                .......................",
"...................  .               .......................",
"...................  ................  .....................",
"...................  ................  .....................",
"...................  ................  .....................",
".....................                .......................",
".....................                .......................",
"............................................................",
"............................................................",
"............................................................",
"............................................................",
"............................................................",
"............................................................",
"............................................................",
"............................................................",
"............................................................",
"............................................................",
"............................................................",
"............................................................",
"............................................................",
"............................................................",
"............................................................",
"............................................................",
"............................................................"
};
