/* XPM */
static char *_6c5108a014948d7a875583cf3f9ce99MWkfbmEFqxNTdAY7[] = {
/* columns rows colors chars-per-pixel */
"60 60 2 1 ",
"  c black",
". c gray72",
/* pixels */
"............................................................",
"............................................................",
"............................................................",
"............................................................",
"............................................................",
"............................................................",
"............................................................",
"............................................................",
"............................................................",
"............................................................",
"............................................................",
"......................            ..........................",
"......................            ..........................",
".....................   ........    ........................",
".....................   ........    ........................",
"..................... ............  ........................",
"..................... ............  ........................",
"..................... ............  ........................",
"..................... ............  ........................",
"......................  ..........  ........................",
"......................  ..........  ........................",
"......................      ....    ........................",
"......................      ....    ........................",
"..........................        ..........................",
"............................  ..............................",
"............................  ..............................",
"............................  ..............................",
"............................  ..............................",
"...............      .......  .........    .................",
"...............      .......  .........    .................",
"...................     ....  ....       ...................",
"...................     ....  ....       ...................",
"........................            ........................",
"........................            ........................",
"............................  ..............................",
"............................  ..............................",
"............................  ..............................",
"............................  ..............................",
"............................  ..............................",
"............................  ..............................",
"............................  ..............................",
"........................        ............................",
"........................        ............................",
".....................     ....    ..........................",
".....................     ....    ..........................",
"...................    .........     .......................",
"...................    .........     .......................",
"...................  ...............   .....................",
"...................  ...............   .....................",
"...................  ................  .....................",
"...................  ................  .....................",
"............................................................",
"............................................................",
"............................................................",
"............................................................",
"............................................................",
"............................................................",
"............................................................",
"............................................................",
"............................................................"
};
