/* XPM */
static char *_18619d9bf4448b285e4b7cb3977a206eMJwFzRAk9wqauL7[] = {
/* columns rows colors chars-per-pixel */
"60 60 2 1 ",
"  c black",
". c gray72",
/* pixels */
"............................................................",
"............................................................",
"............................................................",
"............................................................",
"............................................................",
"............................................................",
"............................................................",
"............................................................",
"............................................................",
"............................................................",
"............................................................",
"............................................................",
"............................................................",
"............................................................",
"............................................................",
"............................................................",
"............................................................",
"............................................................",
"............................................................",
"....  .........  .... ..........  ...            ...........",
"....  .........  .... ..........  ...            ...........",
"....   ......    .... ..........  ...  ..........  .........",
"....   ......    .... ..........  ...  ..........  .........",
"....     ..      .... ..........  ...  ..........  .........",
"....  .      ..  .... ..........  ...  ..........  .........",
"....  .      ..  .... ..........  ...  ..........  .........",
"....  ...  ....  .... ..........  ...            ...........",
"....  ...  ....  .... ..........  ...            ...........",
"....  .........  .... ..........  ...      .................",
"....  .........  .... ..........  ...      .................",
"....  .........  .... ..........  ...      .................",
"....  .........  .... ..........  ...      .................",
"....  .........  .... ..........  ...  ..    ...............",
"....  .........  .... ..........  ...  ..    ...............",
"....  .........  .... ..........  ...  ....    .............",
"....  .........  .... ..........  ...  ....    .............",
"....  .........  .... ..........  ...  ......    ...........",
"....  .........  ....  .........  ...  ......    ...........",
"....  .........  ....  .........  ...  ........    .........",
"....  .........  ....  .........  ...  ..........   ........",
"....  .........  ....  .........  ...  ..........   ........",
"....  .........  ....  .........  ...  ............ ........",
"....  .........  ....  .........  ...  ............ ........",
"....  .........  ....             ...  .............  ......",
"....  .........  ....             ...  .............  ......",
"............................................................",
"............................................................",
"............................................................",
"............................................................",
"............................................................",
"............................................................",
"............................................................",
"............................................................",
"............................................................",
"............................................................",
"............................................................",
"............................................................",
"............................................................",
"............................................................",
"............................................................"
};
